<?xml version="1.0" encoding="UTF-8"?>
<svg width="512px" height="512px" viewBox="0 0 512 512" version="1.1" xmlns="http://www.w3.org/2000/svg" xmlns:xlink="http://www.w3.org/1999/xlink">
    <!-- Generator: Sketch 47 (45396) - http://www.bohemiancoding.com/sketch -->
    <title>align-justify</title>
    <desc>Created with Sketch.</desc>
    <defs></defs>
    <g id="Page-1" stroke="none" stroke-width="1" fill="none" fill-rule="evenodd">
        <g id="align-justify" fill="#9E9E9E">
            <g id="textalign-justify" transform="translate(33.000000, 33.000000)">
                <path d="M446,384.318182 C446,373.256392 438.782366,364.090909 430.071429,364.090909 L15.9285714,364.090909 C7.21763393,364.090909 0,373.256392 0,384.318182 L0,424.772727 C0,435.834517 7.21763393,445 15.9285714,445 L430.071429,445 C438.782366,445 446,435.834517 446,424.772727 L446,384.318182 Z M446,262.954545 C446,251.892756 438.782366,242.727273 430.071429,242.727273 L15.9285714,242.727273 C7.21763393,242.727273 0,251.892756 0,262.954545 L0,303.409091 C0,314.470881 7.21763393,323.636364 15.9285714,323.636364 L430.071429,323.636364 C438.782366,323.636364 446,314.470881 446,303.409091 L446,262.954545 Z M446,141.590909 C446,130.529119 438.782366,121.363636 430.071429,121.363636 L15.9285714,121.363636 C7.21763393,121.363636 0,130.529119 0,141.590909 L0,182.045455 C0,193.107244 7.21763393,202.272727 15.9285714,202.272727 L430.071429,202.272727 C438.782366,202.272727 446,193.107244 446,182.045455 L446,141.590909 Z M446,20.2272727 C446,9.16548295 438.782366,0 430.071429,0 L15.9285714,0 C7.21763393,0 0,9.16548295 0,20.2272727 L0,60.6818182 C0,71.743608 7.21763393,80.9090909 15.9285714,80.9090909 L430.071429,80.9090909 C438.782366,80.9090909 446,71.743608 446,60.6818182 L446,20.2272727 Z" id=""></path>
            </g>
        </g>
    </g>
</svg>