<?xml version="1.0" encoding="UTF-8"?>
<svg width="512px" height="512px" viewBox="0 0 512 512" version="1.1" xmlns="http://www.w3.org/2000/svg" xmlns:xlink="http://www.w3.org/1999/xlink">
    <!-- Generator: Sketch 47.1 (45422) - http://www.bohemiancoding.com/sketch -->
    <title>Artboard</title>
    <desc>Created with Sketch.</desc>
    <defs></defs>
    <g id="Page-1" stroke="none" stroke-width="1" fill="none" fill-rule="evenodd">
        <g id="Artboard" fill="#9E9E9E">
            <path d="M81.6378566,334.768925 L81.6378566,144.217499 L430.982138,144.217499 L430.982138,334.768925 L81.6378566,334.768925 Z M462.74071,96.5796422 C473.326953,96.5796422 478.619995,101.872684 478.619995,112.458928 L478.619995,366.527496 C478.619995,377.11374 473.326953,382.406782 462.74071,382.406782 L49.8792855,382.406782 C39.2930422,382.406782 34,377.11374 34,366.527496 L34,112.458928 C34,101.872684 39.2930422,96.5796422 49.8792855,96.5796422 L462.74071,96.5796422 Z M446.861424,350.648211 L446.861424,128.338213 L65.7585711,128.338213 L65.7585711,350.648211 L446.861424,350.648211 Z M81.6378566,477.682495 L110.419062,398.286067 L141.185177,398.286067 L113.396428,477.682495 L81.6378566,477.682495 Z M271.196828,33.0625 L288.068569,80.7003566 L224.551426,80.7003566 L241.423167,33.0625 L271.196828,33.0625 Z M371.434818,398.286067 L402.200933,398.286067 L430.982138,477.682495 L399.223567,477.682495 L371.434818,398.286067 Z M240.430712,445.923924 L240.430712,398.286067 L272.189283,398.286067 L272.189283,445.923924 L240.430712,445.923924 Z" id="ï‚"></path>
        </g>
    </g>
</svg>