<?xml version="1.0" encoding="UTF-8"?>
<svg width="512px" height="512px" viewBox="0 0 512 512" version="1.1" xmlns="http://www.w3.org/2000/svg" xmlns:xlink="http://www.w3.org/1999/xlink">
    <!-- Generator: Sketch 47 (45396) - http://www.bohemiancoding.com/sketch -->
    <title>bold</title>
    <desc>Created with Sketch.</desc>
    <defs></defs>
    <g id="Page-1" stroke="none" stroke-width="1" fill="none" fill-rule="evenodd">
        <g id="bold" fill="#9E9E9E">
            <g transform="translate(51.000000, 31.000000)" id="">
                <path d="M162.006585,406.621444 C174.85035,412.167615 188.861731,415.962364 202.873111,415.962364 C269.427168,415.962364 312.628924,389.399122 312.628924,318.174605 C312.628924,300.076572 310.293694,281.102828 300.66087,265.631929 C273.51382,221.846365 234.398717,219.511135 187.402212,219.511135 C178.645099,219.511135 166.093238,219.511135 157.919933,222.430173 C157.919933,253.371971 157.628029,284.313769 157.628029,314.963664 C157.628029,335.105023 155.000895,389.691026 162.006585,406.621444 Z M157.919933,188.861241 C168.428468,190.612663 179.228907,190.904567 189.737442,190.904567 C249.869616,190.904567 292.779468,173.974149 292.779468,106.544381 C292.779468,49.6231488 242.280118,30.065597 193.532191,30.065597 C180.688426,30.065597 168.136564,31.8170196 155.584703,33.8603459 C155.584703,63.3426253 157.919933,92.8249048 157.919933,122.307184 C157.919933,137.778083 157.628029,153.248983 157.628029,168.719882 C157.628029,175.433668 157.628029,182.147454 157.919933,188.861241 Z M0,448.363681 L0.583807514,420.924728 C19.265648,416.254268 38.2393922,415.962364 56.3374251,408.372866 C66.5540566,391.150545 65.0945378,360.792554 65.0945378,341.235002 C65.0945378,334.813119 65.6783453,55.7531276 58.6726552,42.0336511 C54.2940988,33.5684421 11.3842465,31.5251158 1.75142254,30.3575008 L0.583807514,6.12948895 C70.0569017,4.96187392 139.529996,-0.00048995018 208.711186,-0.00048995018 C221.846855,-0.00048995018 235.274428,0.291413807 248.410097,0.291413807 C314.380346,0.291413807 387.064382,31.8170196 387.064382,107.711996 C387.064382,159.962769 347.365471,179.520321 306.207041,198.202161 C361.668755,210.754023 411.00049,248.409607 411.00049,309.709396 C411.00049,410.124289 319.634614,443.401317 234.106813,443.401317 C208.419283,443.401317 182.731752,441.649894 157.044221,441.649894 C104.793449,441.649894 51.9588688,446.320355 0,448.363681 Z"></path>
            </g>
        </g>
    </g>
</svg>