<?xml version="1.0" encoding="UTF-8"?>
<svg width="512px" height="512px" viewBox="0 0 512 512" version="1.1" xmlns="http://www.w3.org/2000/svg" xmlns:xlink="http://www.w3.org/1999/xlink">
    <!-- Generator: Sketch 47.1 (45422) - http://www.bohemiancoding.com/sketch -->
    <title>ColorDrag</title>
    <desc>Created with Sketch.</desc>
    <defs></defs>
    <g id="Page-1" stroke="none" stroke-width="1" fill="none" fill-rule="evenodd">
        <g id="ColorDrag" fill="#E0E0E0">
            <path d="M350.951172,39.4433594 C353.705092,36.6894394 357.83591,35.3125 363.34375,35.3125 C369.769563,35.3125 375.047831,37.6073989 379.178711,42.1972656 C383.309591,46.7871323 385.375,52.2948897 385.375,58.7207031 L385.375,452.529297 C385.375,458.95511 383.309591,464.462868 379.178711,469.052734 C375.047831,473.642601 369.769563,475.9375 363.34375,475.9375 C357.83591,475.9375 353.705092,474.560561 350.951172,471.806641 L348.197266,469.052734 L133.392578,281.787109 C125.130818,273.525349 121,264.804733 121,255.625 C121,246.445267 125.130818,237.724651 133.392578,229.462891 L348.197266,42.1972656 L350.951172,39.4433594 Z" id=""></path>
        </g>
    </g>
</svg>