<?xml version="1.0" encoding="UTF-8"?>
<svg width="512px" height="512px" viewBox="0 0 512 512" version="1.1" xmlns="http://www.w3.org/2000/svg" xmlns:xlink="http://www.w3.org/1999/xlink">
    <!-- Generator: Sketch 47 (45396) - http://www.bohemiancoding.com/sketch -->
    <title>flexlitem-shrink</title>
    <desc>Created with Sketch.</desc>
    <defs></defs>
    <g id="Page-1" stroke="none" stroke-width="1" fill="none" fill-rule="evenodd">
        <g id="flexlitem-shrink" fill="#9E9E9E">
            <g transform="translate(46.000000, 32.000000)">
                <g id="Group-22" transform="translate(0.000000, 160.000000)">
                    <path d="M111.533203,4.13085938 L157.431641,52.3242188 C160.185561,55.0781388 161.5625,58.5969838 161.5625,62.8808594 C161.5625,66.8587438 160.185561,70.2245956 157.431641,72.9785156 L111.533203,121.630859 C108.779283,124.384779 105.489928,125.761719 101.665039,125.761719 C97.8401501,125.761719 94.550795,124.384779 91.796875,121.630859 C89.042955,118.876939 87.6660156,115.358094 87.6660156,111.074219 C87.6660156,106.790343 89.042955,103.271498 91.796875,100.517578 L113.828125,77.5683594 L14.2285156,77.5683594 C10.2506312,77.5683594 6.88477939,76.1149234 4.13085938,73.2080078 C1.37693936,70.3010922 0,66.8587438 0,62.8808594 C0,58.9029749 1.37693936,55.4606265 4.13085938,52.5537109 C6.88477939,49.6467954 10.2506312,48.1933594 14.2285156,48.1933594 L113.828125,48.1933594 L91.3378906,25.2441406 C88.5839706,22.4902206 87.2070312,18.9713756 87.2070312,14.6875 C87.2070312,10.4036244 88.5839706,6.88477939 91.3378906,4.13085938 C94.0918106,1.37693936 97.4576624,0 101.435547,0 C105.413431,0 108.779283,1.37693936 111.533203,4.13085938 Z" id=""></path>
                    <path d="M369.533203,4.13085938 L415.431641,52.3242188 C418.185561,55.0781388 419.5625,58.5969838 419.5625,62.8808594 C419.5625,66.8587438 418.185561,70.2245956 415.431641,72.9785156 L369.533203,121.630859 C366.779283,124.384779 363.489928,125.761719 359.665039,125.761719 C355.84015,125.761719 352.550795,124.384779 349.796875,121.630859 C347.042955,118.876939 345.666016,115.358094 345.666016,111.074219 C345.666016,106.790343 347.042955,103.271498 349.796875,100.517578 L371.828125,77.5683594 L272.228516,77.5683594 C268.250631,77.5683594 264.884779,76.1149234 262.130859,73.2080078 C259.376939,70.3010922 258,66.8587438 258,62.8808594 C258,58.9029749 259.376939,55.4606265 262.130859,52.5537109 C264.884779,49.6467954 268.250631,48.1933594 272.228516,48.1933594 L371.828125,48.1933594 L349.337891,25.2441406 C346.583971,22.4902206 345.207031,18.9713756 345.207031,14.6875 C345.207031,10.4036244 346.583971,6.88477939 349.337891,4.13085938 C352.091811,1.37693936 355.457662,0 359.435547,0 C363.413431,0 366.779283,1.37693936 369.533203,4.13085938 Z" id="-copy" transform="translate(338.781250, 62.880859) scale(-1, 1) translate(-338.781250, -62.880859) "></path>
                </g>
                <rect id="Rectangle" x="194" y="0" width="32" height="446"></rect>
            </g>
        </g>
    </g>
</svg>