<?xml version="1.0" encoding="UTF-8"?>
<svg width="512px" height="512px" viewBox="0 0 512 512" version="1.1" xmlns="http://www.w3.org/2000/svg" xmlns:xlink="http://www.w3.org/1999/xlink">
    <!-- Generator: Sketch 47 (45396) - http://www.bohemiancoding.com/sketch -->
    <title>flexlitem-expand</title>
    <desc>Created with Sketch.</desc>
    <defs></defs>
    <g id="Page-1" stroke="none" stroke-width="1" fill="none" fill-rule="evenodd">
        <g id="flexlitem-expand" fill="#9E9E9E">
            <g transform="translate(97.000000, 194.000000)" id="ï¾">
                <path d="M318,61.5 C318,58.2328125 316.757812,55.1578125 314.628348,52.8515625 L269.199777,3.6515625 C267.070312,1.3453125 264.231027,0 261.214286,0 C255.003348,0 249.857143,5.5734375 249.857143,12.3 L249.857143,36.9 L68.1428571,36.9 L68.1428571,12.3 C68.1428571,5.5734375 62.9966518,0 56.7857143,0 C53.7689732,0 50.9296875,1.3453125 48.8002232,3.6515625 L3.37165179,52.8515625 C1.2421875,55.1578125 0,58.2328125 0,61.5 C0,64.7671875 1.2421875,67.8421875 3.37165179,70.1484375 L48.8002232,119.348438 C50.9296875,121.654688 53.7689732,123 56.7857143,123 C62.9966518,123 68.1428571,117.426563 68.1428571,110.7 L68.1428571,86.1 L249.857143,86.1 L249.857143,110.7 C249.857143,117.426563 255.003348,123 261.214286,123 C264.231027,123 267.070312,121.654688 269.199777,119.348438 L314.628348,70.1484375 C316.757812,67.8421875 318,64.7671875 318,61.5 Z"></path>
            </g>
            <rect id="Rectangle" x="33" y="32" width="32" height="446"></rect>
            <rect id="Rectangle-Copy" x="447" y="32" width="32" height="446"></rect>
        </g>
    </g>
</svg>