<?xml version="1.0" encoding="UTF-8"?>
<svg width="512px" height="512px" viewBox="0 0 512 512" version="1.1" xmlns="http://www.w3.org/2000/svg" xmlns:xlink="http://www.w3.org/1999/xlink">
    <!-- Generator: Sketch 47 (45396) - http://www.bohemiancoding.com/sketch -->
    <title>folder</title>
    <desc>Created with Sketch.</desc>
    <defs></defs>
    <g id="Page-1" stroke="none" stroke-width="1" fill="none" fill-rule="evenodd">
        <g id="folder" fill="#9E9E9E">
            <g transform="translate(34.000000, 32.000000)" id="ï´">
                <path d="M422.154018,37.1666667 C428.776075,37.1666667 434.23919,39.6831346 438.543527,44.7161458 C442.847864,49.7491571 445,56.1371141 445,63.8802083 L445,416.963542 C445,425.480945 442.847864,432.449626 438.543527,437.869792 C434.23919,443.289958 428.776075,446 422.154018,446 L24.8325893,446 C18.2105324,446 12.4163195,443.096383 7.44977679,437.289063 C2.4832341,431.481742 0,424.706636 0,416.963542 L0,26.7135417 C0,18.9704474 2.31768516,12.5824904 6.953125,7.54947917 C11.5885648,2.51646789 17.5483267,0 24.8325893,0 L136.082589,0 C142.704646,0 148.33331,2.71004234 152.96875,8.13020833 L175.814732,34.84375 C177.139144,36.3923689 179.125731,37.1666667 181.774554,37.1666667 L422.154018,37.1666667 Z M24.8325893,18.5833333 C18.8727381,18.5833333 15.8928571,21.2933757 15.8928571,26.7135417 L15.8928571,112.661458 C17.8794742,111.887149 20.5282573,111.5 23.8392857,111.5 L421.160714,111.5 C424.471743,111.5 427.120526,111.887149 429.107143,112.661458 L429.107143,63.8802083 C429.107143,58.4600423 426.789458,55.75 422.154018,55.75 L181.774554,55.75 C175.152497,55.75 169.523833,53.0399577 164.888393,47.6197917 L142.042411,20.90625 C140.717999,19.3576311 138.731412,18.5833333 136.082589,18.5833333 L24.8325893,18.5833333 Z M429.107143,416.963542 L429.107143,139.375 C429.107143,133.180525 426.45836,130.083333 421.160714,130.083333 L23.8392857,130.083333 C18.5416402,130.083333 15.8928571,133.180525 15.8928571,139.375 L15.8928571,416.963542 C15.8928571,419.28647 16.8861508,421.609363 18.8727679,423.932292 C20.8593849,426.25522 22.8459722,427.416667 24.8325893,427.416667 L422.154018,427.416667 C426.789458,427.416667 429.107143,423.932327 429.107143,416.963542 Z"></path>
            </g>
        </g>
    </g>
</svg>