<?xml version="1.0" encoding="UTF-8"?>
<svg width="512px" height="512px" viewBox="0 0 512 512" version="1.1" xmlns="http://www.w3.org/2000/svg" xmlns:xlink="http://www.w3.org/1999/xlink">
    <!-- Generator: Sketch 47.1 (45422) - http://www.bohemiancoding.com/sketch -->
    <title>icn_cover</title>
    <desc>Created with Sketch.</desc>
    <defs></defs>
    <g id="Page-1" stroke="none" stroke-width="1" fill="none" fill-rule="evenodd">
        <g id="icn_cover" fill="#6F727D">
            <g id="insert" fill-rule="nonzero">
                <path d="M32,480 L480,480 L480,32 L32,32 L32,480 Z M3.43624161,5.09806447e-16 L508.563758,5.09806447e-16 C510.461542,-3.49398888e-16 512,1.54190723 512,3.44394619 L512,508.556054 C512,510.458093 510.461542,512 508.563758,512 L3.43624161,512 C1.53845777,512 7.41077431e-16,510.458093 5.08665941e-16,508.556054 L0,3.44394619 C2.7625445e-16,1.54190723 1.53845777,3.49398888e-16 3.43624161,5.09806447e-16 Z" id="Rectangle"></path>
            </g>
            <rect id="Rectangle-3" x="64" y="96" width="384" height="320"></rect>
            <path d="M64.5,80.5 L102.5,80.5 L102.5,64.5 L64.5,64.5 L64.5,80.5 Z M108.5,80.5 L146.5,80.5 L146.5,64.5 L108.5,64.5 L108.5,80.5 Z M152.5,80.5 L190.5,80.5 L190.5,64.5 L152.5,64.5 L152.5,80.5 Z M196.5,80.5 L234.5,80.5 L234.5,64.5 L196.5,64.5 L196.5,80.5 Z M240.5,80.5 L278.5,80.5 L278.5,64.5 L240.5,64.5 L240.5,80.5 Z M284.5,80.5 L322.5,80.5 L322.5,64.5 L284.5,64.5 L284.5,80.5 Z M328.5,80.5 L366.5,80.5 L366.5,64.5 L328.5,64.5 L328.5,80.5 Z M372.5,80.5 L410.5,80.5 L410.5,64.5 L372.5,64.5 L372.5,80.5 Z M416.5,80.5 L448.5,80.5 L448.5,64.5 L416.5,64.5 L416.5,80.5 Z" id="Line" fill-rule="nonzero"></path>
            <path d="M64.5,448.5 L102.5,448.5 L102.5,432.5 L64.5,432.5 L64.5,448.5 Z M108.5,448.5 L146.5,448.5 L146.5,432.5 L108.5,432.5 L108.5,448.5 Z M152.5,448.5 L190.5,448.5 L190.5,432.5 L152.5,432.5 L152.5,448.5 Z M196.5,448.5 L234.5,448.5 L234.5,432.5 L196.5,432.5 L196.5,448.5 Z M240.5,448.5 L278.5,448.5 L278.5,432.5 L240.5,432.5 L240.5,448.5 Z M284.5,448.5 L322.5,448.5 L322.5,432.5 L284.5,432.5 L284.5,448.5 Z M328.5,448.5 L366.5,448.5 L366.5,432.5 L328.5,432.5 L328.5,448.5 Z M372.5,448.5 L410.5,448.5 L410.5,432.5 L372.5,432.5 L372.5,448.5 Z M416.5,448.5 L448.5,448.5 L448.5,432.5 L416.5,432.5 L416.5,448.5 Z" id="Line-Copy" fill-rule="nonzero"></path>
        </g>
    </g>
</svg>