<?xml version="1.0" encoding="UTF-8"?>
<svg width="447px" height="288px" viewBox="0 0 447 288" version="1.1" xmlns="http://www.w3.org/2000/svg" xmlns:xlink="http://www.w3.org/1999/xlink">
    <!-- Generator: Sketch 47.1 (45422) - http://www.bohemiancoding.com/sketch -->
    <title>icon_uploadimg</title>
    <desc>Created with Sketch.</desc>
    <defs></defs>
    <g id="Page-1" stroke="none" stroke-width="1" fill="none" fill-rule="evenodd" opacity="0.77">
        <g id="icon_uploadimg" transform="translate(-33.000000, -112.000000)" fill="#E6E6E6">
            <path d="M397.570312,232.839844 C420.14855,232.839844 439.40617,240.974528 455.34375,257.244141 C471.28133,273.513753 479.25,292.937387 479.25,315.515625 C479.25,338.757929 471.28133,358.513591 455.34375,374.783203 C439.40617,391.052816 420.14855,399.1875 397.570312,399.1875 L288,399.1875 L288,319.5 L335.8125,319.5 L256.125,235.828125 L176.4375,319.5 L224.25,319.5 L224.25,399.1875 L122.648437,399.1875 C98.0780021,399.1875 76.9942286,390.222746 59.3964844,372.292969 C41.7987401,354.363192 33,333.113404 33,308.542969 C33,288.620994 38.6444748,270.8575 49.9335938,255.251953 C61.2227127,239.646406 75.8319416,228.855499 93.7617187,222.878906 C96.417982,208.269458 103.224555,196.150439 114.181641,186.521484 C125.138727,176.89253 137.921802,172.078125 152.53125,172.078125 C160.50004,172.078125 169.132766,174.402321 178.429687,179.050781 C187.726609,159.128807 201.837796,143.025452 220.763672,130.740234 C239.689548,118.455017 260.441293,112.3125 283.019531,112.3125 C314.894691,112.3125 341.954967,123.767464 364.201172,146.677734 C386.447377,169.588005 397.570312,197.312337 397.570312,229.851562 L397.570312,232.839844 Z"></path>
        </g>
    </g>
</svg>