<?xml version="1.0" encoding="UTF-8"?>
<svg width="512px" height="512px" viewBox="0 0 512 512" version="1.1" xmlns="http://www.w3.org/2000/svg" xmlns:xlink="http://www.w3.org/1999/xlink">
    <!-- Generator: Sketch 47.1 (45422) - http://www.bohemiancoding.com/sketch -->
    <title>icon_document</title>
    <desc>Created with Sketch.</desc>
    <defs></defs>
    <g id="Page-1" stroke="none" stroke-width="1" fill="none" fill-rule="evenodd">
        <g id="icon_document" fill="#9E9E9E">
            <path d="M428.363281,154.771484 C429.912768,159.419945 430.6875,163.293604 430.6875,166.392578 L430.6875,451.109375 C430.6875,458.85681 428.169622,465.44203 423.133789,470.865234 C418.097957,476.288439 412.093785,479 405.121094,479 L122.728516,479 C115.755825,479 109.55797,476.288439 104.134766,470.865234 C98.7115614,465.44203 96,458.85681 96,451.109375 L96,60.640625 C96,52.8931904 98.7115614,46.3079698 104.134766,40.8847656 C109.55797,35.4615614 115.755825,32.75 122.728516,32.75 L308.666016,32.75 C313.314476,32.75 316.80077,33.5247318 319.125,35.0742188 C322.223974,36.6237057 324.935535,38.5605353 327.259766,40.8847656 L424.876953,147.798828 L428.363281,154.771484 Z M151.78125,166.392578 L151.78125,178.013672 C151.78125,180.337902 152.943348,181.5 155.267578,181.5 L237.777344,181.5 C240.101574,181.5 241.263672,180.337902 241.263672,178.013672 L241.263672,166.392578 C241.263672,164.068348 240.101574,162.90625 237.777344,162.90625 L155.267578,162.90625 C152.943348,162.90625 151.78125,164.068348 151.78125,166.392578 Z M151.78125,315.142578 L151.78125,326.763672 C151.78125,329.087902 152.943348,330.25 155.267578,330.25 L298.207031,330.25 C299.756518,330.25 300.53125,329.087902 300.53125,326.763672 L300.53125,315.142578 C300.53125,312.818348 299.756518,311.65625 298.207031,311.65625 L155.267578,311.65625 C152.943348,311.65625 151.78125,312.818348 151.78125,315.142578 Z M337.71875,401.138672 L337.71875,389.517578 C337.71875,387.193348 336.944018,386.03125 335.394531,386.03125 L155.267578,386.03125 C152.943348,386.03125 151.78125,387.193348 151.78125,389.517578 L151.78125,401.138672 C151.78125,403.462902 152.943348,404.625 155.267578,404.625 L335.394531,404.625 C336.944018,404.625 337.71875,403.462902 337.71875,401.138672 Z M374.90625,252.388672 L374.90625,240.767578 C374.90625,238.443348 374.131518,237.28125 372.582031,237.28125 L155.267578,237.28125 C152.943348,237.28125 151.78125,238.443348 151.78125,240.767578 L151.78125,252.388672 C151.78125,254.712902 152.943348,255.875 155.267578,255.875 L372.582031,255.875 C374.131518,255.875 374.90625,254.712902 374.90625,252.388672 Z M320.287109,165.230469 L390.013672,165.230469 L307.503906,74.5859375 L307.503906,151.285156 C307.503906,160.582078 311.764931,165.230469 320.287109,165.230469 Z" id=""></path>
        </g>
    </g>
</svg>