<?xml version="1.0" encoding="UTF-8"?>
<svg width="512px" height="512px" viewBox="0 0 512 512" version="1.1" xmlns="http://www.w3.org/2000/svg" xmlns:xlink="http://www.w3.org/1999/xlink">
    <!-- Generator: Sketch 47.1 (45422) - http://www.bohemiancoding.com/sketch -->
    <title>icon_confirm</title>
    <desc>Created with Sketch.</desc>
    <defs></defs>
    <g id="Page-1" stroke="none" stroke-width="1" fill="none" fill-rule="evenodd">
        <g id="icon_confirm" fill="#9E9E9E">
            <path d="M346.492881,170.932643 L365.817785,190.257546 L221.954613,335.194324 C219.09165,338.057287 215.870865,339.488747 212.292162,339.488747 C208.713458,339.488747 205.492673,338.057287 202.62971,335.194324 L142.507787,275.072401 L161.832691,255.747498 L212.292162,306.206968 L346.492881,170.932643 Z M256.309998,32.4375 C317.863702,32.4375 370.469858,54.2672654 414.130044,97.9274512 C457.79023,141.587637 479.619995,194.193793 479.619995,255.747498 C479.619995,317.301202 457.79023,369.907358 414.130044,413.567544 C370.469858,457.22773 317.863702,479.057495 256.309998,479.057495 C194.756293,479.057495 142.150137,457.22773 98.4899512,413.567544 C54.8297654,369.907358 33,317.301202 33,255.747498 C33,194.193793 54.8297654,141.587637 98.4899512,97.9274512 C142.150137,54.2672654 194.756293,32.4375 256.309998,32.4375 Z M256.309998,460.806197 C312.853517,460.806197 361.165293,440.765757 401.246775,400.684275 C441.328257,360.602793 461.368697,312.291017 461.368697,255.747498 C461.368697,199.203978 441.328257,150.892202 401.246775,110.81072 C361.165293,70.7292383 312.853517,50.6887979 256.309998,50.6887979 C199.766478,50.6887979 151.454702,70.7292383 111.37322,110.81072 C71.2917383,150.892202 51.2512979,199.203978 51.2512979,255.747498 C51.2512979,312.291017 71.2917383,360.602793 111.37322,400.684275 C151.454702,440.765757 199.766478,460.806197 256.309998,460.806197 Z" id="ï¾"></path>
        </g>
    </g>
</svg>