<?xml version="1.0" encoding="UTF-8"?>
<svg width="512px" height="512px" viewBox="0 0 512 512" version="1.1" xmlns="http://www.w3.org/2000/svg" xmlns:xlink="http://www.w3.org/1999/xlink">
    <!-- Generator: Sketch 47 (45396) - http://www.bohemiancoding.com/sketch -->
    <title>icon_underline</title>
    <desc>Created with Sketch.</desc>
    <defs></defs>
    <g id="Page-1" stroke="none" stroke-width="1" fill="none" fill-rule="evenodd" opacity="0.9">
        <g id="icon_underline" fill="#9E9E9E">
            <path d="M47.9018023,60.7277833 C42.6886264,60.4381624 38.3443132,60.4381624 34.8688626,59.5692998 L34,34.0826622 C37.7650715,33.7930414 41.5301429,33.7930414 45.5848352,33.7930414 C55.7215661,33.7930414 66.7271595,34.0826622 78.0223739,34.9515249 C105.246737,36.3996293 121.465506,36.978871 126.09944,36.978871 C142.60783,36.978871 158.8266,36.6892502 174.755748,36.1100084 C190.395276,35.5307666 204.586699,34.9515249 217.040397,34.661904 C229.204474,34.661904 237.603479,34.3722831 241.947793,34.0826622 L241.658172,38.1373546 L242.237413,56.673091 L242.237413,59.2796789 C230.652578,61.0174042 218.778122,61.8862668 206.324424,61.8862668 C194.739589,61.8862668 187.209446,64.2032339 183.444375,69.1267888 C180.837787,72.0229976 179.679303,84.7663164 179.679303,107.356745 C179.679303,114.307646 179.968924,119.810443 179.968924,124.154756 L180.258545,190.477938 L184.313237,271.571785 C185.471721,295.031076 190.105655,314.435675 199.083902,330.075203 C205.745182,341.370417 215.013051,350.348664 226.887507,356.720324 C244.26476,365.988192 261.352392,370.332505 278.150403,370.332505 C297.844623,370.332505 316.380359,367.725917 333.467991,362.22312 C343.604722,359.037291 353.162211,354.403357 362.140458,347.452455 C371.118705,340.791175 377.490365,334.709137 380.965815,328.916719 C388.495958,317.331884 393.419513,306.036669 396.315722,295.899939 C400.370414,281.708515 402.397761,259.697329 402.397761,229.576757 C402.397761,177.734619 398.632689,176.286515 394.288376,110.832196 L393.129892,93.7445637 C392.26103,81.2908658 390.233684,72.6022394 386.178991,68.2579262 C379.807332,61.5966459 372.277189,58.1211954 363.878183,58.4108162 L334.916095,58.990058 L330.861403,58.1211954 L331.440645,33.2137996 L355.768799,33.2137996 L415.141079,36.1100084 C434.835299,36.978871 453.660657,35.2411458 471.906772,33.2137996 L477.119948,33.7930414 C478.278431,41.0335634 478.857673,45.9571184 478.857673,48.5637063 C478.857673,51.1702942 478.278431,54.066503 477.69919,57.5419536 C469.879426,59.5692998 461.770041,61.0174042 453.371036,61.307025 C439.758854,63.3343712 431.93909,64.7824756 430.490986,66.23058 C427.884398,68.837168 426.146673,72.6022394 426.146673,78.1050361 C426.146673,81.8701076 426.725915,87.6625252 427.015535,94.9030472 C427.015535,94.9030472 429.332503,100.116223 433.387195,209.592916 C434.835299,253.325669 431.93909,282.866999 429.042882,297.637664 C426.146673,312.408329 422.09198,324.282785 417.168426,332.971411 C409.638283,345.71473 398.632689,357.589186 384.730887,368.59478 C370.539464,379.310752 353.162211,387.999379 332.019887,394.371038 C310.877562,400.742698 286.259787,403.928527 258.166562,403.928527 C226.308265,403.928527 198.794281,399.584214 175.914232,390.605967 C153.034182,381.627719 135.656929,369.753263 124.072094,355.272219 C112.487259,340.791175 104.377874,321.965818 100.033561,298.796147 C96.8477312,282.866999 95.3996268,259.986949 95.3996268,230.155999 L95.3996268,133.712245 C95.3996268,97.2200143 93.6619015,76.6569317 90.4760718,72.0229976 C85.8421377,65.3617174 71.6507145,61.307025 47.9018023,60.7277833 Z M478.857673,468.803605 C478.857673,474.01678 474.802981,478.071473 469.589805,478.071473 L43.2678682,478.071473 C38.0546923,478.071473 34,474.01678 34,468.803605 L34,450.267868 C34,445.054692 38.0546923,441 43.2678682,441 L469.589805,441 C474.802981,441 478.857673,445.054692 478.857673,450.267868 L478.857673,468.803605 Z" id="ïƒ"></path>
        </g>
    </g>
</svg>