<?xml version="1.0" encoding="UTF-8"?>
<svg width="512px" height="512px" viewBox="0 0 512 512" version="1.1" xmlns="http://www.w3.org/2000/svg" xmlns:xlink="http://www.w3.org/1999/xlink">
    <!-- Generator: Sketch 47 (45396) - http://www.bohemiancoding.com/sketch -->
    <title>icon_Transform</title>
    <desc>Created with Sketch.</desc>
    <defs></defs>
    <g id="Page-1" stroke="none" stroke-width="1" fill="none" fill-rule="evenodd" opacity="0.9">
        <g id="icon_Transform" fill="#9E9E9E">
            <path d="M236.658203,273.28125 L235.585938,271.136719 C231.296854,266.132787 225.935579,259.163131 219.501953,250.227539 C213.068327,241.291948 203.060615,227.531343 189.478516,208.945312 C175.896416,190.359282 164.63774,174.811586 155.702148,162.301758 C146.766557,149.79193 142.656246,143.179691 143.371094,142.464844 C144.085941,141.749996 155.344618,149.077072 177.147461,164.446289 C198.950304,179.815507 220.574112,195.363203 242.019531,211.089844 L273.115234,233.607422 L274.1875,234.679688 C274.1875,236.109382 274.544918,236.824219 275.259766,236.824219 C280.978544,242.542997 283.837891,248.976527 283.837891,256.125 C283.837891,263.273473 281.157253,269.528294 275.795898,274.889648 C270.434544,280.251003 264.179723,282.931641 257.03125,282.931641 C248.453082,282.931641 241.662134,279.714876 236.658203,273.28125 Z M257.03125,33.09375 C318.50812,33.09375 371.04861,54.8962663 414.654297,98.5019531 C458.259984,142.10764 480.0625,194.64813 480.0625,256.125 C480.0625,317.60187 458.259984,370.14236 414.654297,413.748047 C371.04861,457.353734 318.50812,479.15625 257.03125,479.15625 C195.55438,479.15625 143.01389,457.353734 99.4082031,413.748047 C55.8025163,370.14236 34,317.60187 34,256.125 C34,194.64813 55.8025163,142.10764 99.4082031,98.5019531 L112.275391,111.369141 C72.2439405,151.400591 52.2285156,199.652061 52.2285156,256.125 C52.2285156,313.312786 72.0652313,361.742966 111.739258,401.416992 C151.413284,441.091019 199.843464,460.927734 257.03125,460.927734 C314.219036,460.927734 362.649216,441.091019 402.323242,401.416992 C441.997269,361.742966 461.833984,313.312786 461.833984,256.125 C461.833984,202.511451 443.78436,156.047072 407.68457,116.730469 C371.58478,77.4138659 327.086202,55.6113496 274.1875,51.3222656 L274.1875,153.1875 L257.03125,153.1875 L257.03125,33.09375 Z" id=""></path>
        </g>
    </g>
</svg>