<?xml version="1.0" encoding="UTF-8"?>
<svg width="512px" height="512px" viewBox="0 0 512 512" version="1.1" xmlns="http://www.w3.org/2000/svg" xmlns:xlink="http://www.w3.org/1999/xlink">
    <!-- Generator: Sketch 47 (45396) - http://www.bohemiancoding.com/sketch -->
    <title>image</title>
    <desc>Created with Sketch.</desc>
    <defs></defs>
    <g id="Page-1" stroke="none" stroke-width="1" fill="none" fill-rule="evenodd">
        <g id="image" fill="#9E9E9E">
            <g transform="translate(34.000000, 33.000000)" id="">
                <path d="M333,185.416667 C319.785648,185.416667 308.553618,180.008735 299.303571,169.192708 C290.053525,158.376682 285.428571,145.243133 285.428571,129.791667 C285.428571,114.340201 290.053525,101.206651 299.303571,90.390625 C308.553618,79.5745987 319.785648,74.1666667 333,74.1666667 C346.214352,74.1666667 357.446382,79.5745987 366.696429,90.390625 C375.946475,101.206651 380.571429,114.340201 380.571429,129.791667 C380.571429,145.243133 375.946475,158.376682 366.696429,169.192708 C357.446382,180.008735 346.214352,185.416667 333,185.416667 Z M416.25,0 C424.178611,0 430.785688,3.09024687 436.071429,9.27083333 C441.357169,15.4514198 444,23.177037 444,32.4479167 L444,412.552083 C444,421.822963 441.357169,429.54858 436.071429,435.729167 C430.785688,441.909753 424.178611,445 416.25,445 L27.75,445 C19.8213889,445 13.2143121,441.909753 7.92857143,435.729167 C2.64283071,429.54858 0,421.822963 0,412.552083 L0,32.4479167 C0,23.177037 2.64283071,15.4514198 7.92857143,9.27083333 C13.2143121,3.09024687 19.8213889,0 27.75,0 L416.25,0 Z M314.169643,229.453125 L412.285714,352.291667 L412.285714,50.9895833 C412.285714,41.7187036 407.991114,37.0833333 399.401786,37.0833333 L44.5982143,37.0833333 C37.3303208,37.0833333 33.0357209,41.7187036 31.7142857,50.9895833 L31.7142857,352.291667 L156.589286,176.145833 C161.875026,169.965247 167.491042,166.875 173.4375,166.875 C180.705393,166.875 186.321409,169.578966 190.285714,174.986979 L243.803571,243.359375 L247.767857,247.994792 C251.732163,251.085085 255.366055,252.630208 258.669643,252.630208 C261.973231,252.630208 265.937477,250.698804 270.5625,246.835937 L288.401786,228.294271 C293.026809,224.431404 297.321409,222.5 301.285714,222.5 C306.571455,222.5 310.866055,224.817685 314.169643,229.453125 Z"></path>
            </g>
        </g>
    </g>
</svg>