<?xml version="1.0" encoding="UTF-8"?>
<svg width="512px" height="512px" viewBox="0 0 512 512" version="1.1" xmlns="http://www.w3.org/2000/svg" xmlns:xlink="http://www.w3.org/1999/xlink">
    <!-- Generator: Sketch 47 (45396) - http://www.bohemiancoding.com/sketch -->
    <title>letter-spacing</title>
    <desc>Created with Sketch.</desc>
    <defs></defs>
    <g id="Page-1" stroke="none" stroke-width="1" fill="none" fill-rule="evenodd" opacity="0.9">
        <g id="letter-spacing" fill="#9E9E9E">
            <g transform="translate(33.000000, 32.000000)">
                <path d="M138.13167,152.150297 L67.7288196,152.150297 L50.2957327,199.816165 C49.625226,200.959237 49.1782283,202.216597 48.9547261,203.588284 C48.7312238,204.95997 48.6194744,205.98872 48.6194744,206.674563 C48.6194744,209.189321 49.7928435,211.24682 52.1396169,212.847121 C54.4863904,214.447422 59.2357415,215.819088 66.3878129,216.96216 C69.5168442,217.419389 71.0813363,219.591193 71.0813363,223.477638 C71.0813363,225.077939 70.8578374,227.021133 70.410833,229.307277 C64.3762727,228.850048 58.0065547,228.449979 51.3014878,228.107057 C44.5964208,227.764136 38.0032039,227.592677 31.5216392,227.592677 C27.0515946,227.592677 22.3581181,227.706983 17.441069,227.935597 C12.52402,228.164212 7.04829743,228.621434 1.01373719,229.307277 C0.566732732,228.392819 0.343233853,227.36407 0.343233853,226.220998 L0.343233853,223.477638 C0.343233853,219.133965 1.79597656,216.847855 4.70150557,216.61924 C11.6300747,215.247554 16.6029248,213.761582 19.6202049,212.161281 C22.637485,210.560981 25.040098,207.817649 26.8281158,203.931204 L107.623768,6.40933638 C109.411786,2.52289132 112.093773,0.579697941 115.669808,0.579697941 C116.78732,0.579697941 117.904814,0.636850687 119.022325,0.751157895 C120.139836,0.865465102 121.36908,1.03692334 122.710094,1.26553776 L203.505746,204.959963 C204.846759,208.38918 207.416997,210.961053 211.216535,212.675661 C215.016072,214.390269 219.150802,215.590477 223.620846,216.27632 C226.97338,216.962164 228.649621,219.248273 228.649621,223.134719 C228.649621,224.963634 228.426123,227.021133 227.979118,229.307277 C220.827047,228.850048 213.786832,228.449979 206.858263,228.107057 C199.929694,227.764136 193.448226,227.592677 187.413666,227.592677 C184.284635,227.592677 180.485154,227.64983 176.015109,227.764137 C171.545065,227.878445 166.963337,228.049903 162.269791,228.278517 C157.576244,228.507132 152.938642,228.67859 148.356846,228.792897 C143.775051,228.907204 139.919695,229.078662 136.790664,229.307277 C136.343659,228.392819 136.12016,227.36407 136.12016,226.220998 L136.12016,223.477638 C136.12016,221.420109 136.511283,219.876985 137.293541,218.84822 C138.075799,217.819455 138.91392,217.190775 139.807929,216.96216 C145.618987,215.819088 149.92134,214.504575 152.715118,213.018581 C155.508896,211.532588 156.905764,209.30363 156.905764,206.331643 C156.905764,204.959957 156.570516,203.245374 155.900009,201.187844 L138.13167,152.150297 Z M131.761889,135.004302 L103.265497,57.8473227 L74.0986013,135.004302 L131.761889,135.004302 Z M322.642002,210.446682 L390.36284,210.446682 C397.067907,210.446682 402.711253,209.646543 407.293049,208.046243 C411.874845,206.445942 415.7302,204.045526 418.859232,200.844924 C421.988263,197.644323 424.726124,193.64363 427.072898,188.842728 C429.419671,184.041825 431.710535,178.32655 433.945557,171.696732 C434.392561,169.867817 435.230682,168.553304 436.459944,167.753153 C437.689207,166.953003 438.862576,166.552934 439.980087,166.552934 C441.991607,166.552934 444.561844,167.238767 447.690875,168.610453 C445.679355,178.669487 444.114863,188.671218 442.997352,198.615945 C441.879841,208.560672 441.097595,216.504904 440.65059,222.448879 C440.427088,225.192252 439.644842,227.078292 438.303829,228.107057 C436.962815,229.135822 435.286574,229.650197 433.275054,229.650197 C429.028511,229.650197 423.832162,229.30728 417.685851,228.621437 C411.53954,227.935594 404.890448,227.592677 397.738376,227.592677 L264.643463,227.592677 C264.643463,225.535148 265.090461,223.591954 265.98447,221.763039 L385.334065,21.8407323 L322.977254,21.8407323 C316.048685,21.8407323 310.293589,22.2408015 305.711793,23.0409519 C301.129997,23.8411024 297.218767,25.498532 293.977984,28.0132906 C290.737202,30.5280492 288.166965,34.0143667 286.267196,38.4723478 C284.367427,42.9303289 282.635311,48.9313673 281.070795,56.475643 C280.400288,59.9048593 277.830051,61.6194416 273.360007,61.6194416 C272.242496,61.6194416 271.069126,61.4479834 269.839864,61.1050618 C268.610602,60.7621402 267.548982,60.2477654 266.654973,59.5619222 C268.219489,49.5028879 269.392858,40.0726847 270.175116,31.2710297 C270.957374,22.4693748 271.571996,15.3252814 272.019,9.83853547 C272.689507,5.26624716 275.036245,2.9801373 279.059285,2.9801373 C283.52933,2.9801373 288.39043,3.26590103 293.642733,3.83743707 C298.895035,4.40897311 305.097129,4.69473684 312.249201,4.69473684 L442.997352,4.69473684 C442.997352,6.06642333 442.941477,7.32378376 442.829726,8.46685584 C442.717975,9.60992791 442.326852,10.6386773 441.656345,11.553135 L322.642002,210.446682 Z" id="AZ"></path>
                <path d="M445.007212,364.06061 C445.007212,359.742441 443.268903,355.678281 440.288944,352.630161 L376.716485,287.603604 C373.736526,284.555484 369.763247,282.777414 365.541638,282.777414 C356.850091,282.777414 349.648524,290.143704 349.648524,299.034054 L349.648524,331.547332 L95.3586883,331.547332 L95.3586883,299.034054 C95.3586883,290.143704 88.1571207,282.777414 79.4655736,282.777414 C75.243965,282.777414 71.2706863,284.555484 68.2907273,287.603604 L4.71826843,352.630161 C1.73830942,355.678281 0,359.742441 0,364.06061 C0,368.37878 1.73830942,372.44294 4.71826843,375.49106 L68.2907273,440.517617 C71.2706863,443.565736 75.243965,445.343806 79.4655736,445.343806 C88.1571207,445.343806 95.3586883,437.977517 95.3586883,429.087167 L95.3586883,396.573889 L349.648524,396.573889 L349.648524,429.087167 C349.648524,437.977517 356.850091,445.343806 365.541638,445.343806 C369.763247,445.343806 373.736526,443.565736 376.716485,440.517617 L440.288944,375.49106 C443.268903,372.44294 445.007212,368.37878 445.007212,364.06061 Z" id="ï¾"></path>
            </g>
        </g>
    </g>
</svg>