<?xml version="1.0" encoding="UTF-8"?>
<svg width="512px" height="512px" viewBox="0 0 512 512" version="1.1" xmlns="http://www.w3.org/2000/svg" xmlns:xlink="http://www.w3.org/1999/xlink">
    <!-- Generator: Sketch 47 (45396) - http://www.bohemiancoding.com/sketch -->
    <title>line-spacing</title>
    <desc>Created with Sketch.</desc>
    <defs></defs>
    <g id="Page-1" stroke="none" stroke-width="1" fill="none" fill-rule="evenodd">
        <g id="line-spacing" fill="#9E9E9E">
            <g transform="translate(53.000000, 33.000000)" id="ï…">
                <path d="M289.421112,102.029827 L333.47362,102.029827 L315.553956,47.8944461 L312.567345,36.2230566 C312.318461,34.2364371 312.069577,32.7464725 312.069577,31.2565078 L311.07404,31.2565078 L310.327387,36.2230566 C309.580735,39.2029858 309.33185,42.9278974 307.589661,47.8944461 L289.421112,102.029827 Z M176.17879,358.303743 C176.17879,353.833849 172.694411,350.357265 168.214495,350.357265 L120.428723,350.357265 L120.428723,8.65871105 C120.428723,4.18881718 116.944344,0.712233059 112.464428,0.712233059 L64.6786569,0.712233059 C60.1987408,0.712233059 56.7143617,4.18881718 56.7143617,8.65871105 L56.7143617,350.357265 L8.92859042,350.357265 C5.69309549,350.357265 2.70648479,352.343884 1.46206366,355.323814 C0.217642533,358.303743 0.964295208,361.531999 3.20425324,364.015274 L82.8472053,443.480054 C84.5893949,444.970018 86.5804687,445.715001 88.5715425,445.715001 C90.5626163,445.715001 92.5536901,444.970018 94.2958797,443.480054 L173.689948,364.263601 C175.183253,362.525309 176.17879,360.53869 176.17879,358.303743 Z M384.246002,387.854708 L354.131011,387.854708 L354.131011,417.405673 L292.407723,417.405673 C289.421112,417.405673 287.181154,417.405673 284.941196,417.902328 L281.456817,418.398983 L281.456817,417.902328 L284.194544,415.170726 C285.936733,413.184106 287.927807,410.949159 289.421112,408.714213 L381.259391,277.100671 L381.259391,254.999529 L240.142036,254.999529 L240.142036,311.866512 L270.008143,311.866512 L270.008143,283.308857 L327.749283,283.308857 C330.735894,283.308857 333.224736,283.060529 335.21581,282.563874 C336.709115,282.563874 337.704652,282.315547 338.700189,282.315547 L338.700189,283.060529 L335.962462,285.295476 C334.718041,286.537113 332.726967,289.020388 330.735894,292.000317 L238.897615,423.365531 L238.897615,445.715001 L384.246002,445.715001 L384.246002,387.854708 Z M406.396698,165.104997 L406.396698,191.427705 L334.718041,191.427705 L334.718041,165.104997 L353.384358,165.104997 L341.6868,129.345846 L281.207933,129.345846 L269.510374,165.104997 L288.176691,165.104997 L288.176691,191.427705 L216.746919,191.427705 L216.746919,165.104997 L234.168814,165.104997 L291.412186,0.712233059 L331.731431,0.712233059 L388.974802,165.104997 L406.396698,165.104997 Z"></path>
            </g>
        </g>
    </g>
</svg>