<?xml version="1.0" encoding="UTF-8"?>
<svg width="344px" height="446px" viewBox="0 0 344 446" version="1.1" xmlns="http://www.w3.org/2000/svg" xmlns:xlink="http://www.w3.org/1999/xlink">
    <!-- Generator: Sketch 47.1 (45422) - http://www.bohemiancoding.com/sketch -->
    <title>lock_icn</title>
    <desc>Created with Sketch.</desc>
    <defs></defs>
    <g id="Page-1" stroke="none" stroke-width="1" fill="none" fill-rule="evenodd">
        <g id="lock_iconclose" transform="translate(-84.000000, -33.000000)" fill="#949394">
            <path d="M367.038462,221.692308 L427.076923,221.692308 L427.076923,479 L84,479 L84,221.692308 L144.038462,221.692308 L144.038462,144.5 C144.038462,113.765872 154.938192,87.4993077 176.737981,65.6995192 C198.537769,43.8997307 224.804334,33 255.538462,33 C286.27259,33 312.539154,43.8997307 334.338942,65.6995192 C356.138731,87.4993077 367.038462,113.765872 367.038462,144.5 L367.038462,221.692308 Z M161.192308,144.5 L161.192308,221.692308 L349.884615,221.692308 L349.884615,144.5 C349.884615,118.054355 340.771726,95.7188411 322.545673,77.4927885 C304.31962,59.2667358 281.984107,50.1538462 255.538462,50.1538462 C229.092816,50.1538462 206.757303,59.2667358 188.53125,77.4927885 C170.305197,95.7188411 161.192308,118.054355 161.192308,144.5 Z M409.923077,461.846154 L409.923077,238.846154 L101.153846,238.846154 L101.153846,461.846154 L409.923077,461.846154 Z M255.538462,290.307692 C265.544922,290.307692 273.764391,293.524006 280.197115,299.956731 C286.62984,306.389455 289.846154,314.608924 289.846154,324.615385 C289.846154,341.769317 281.269317,352.847731 264.115385,357.850962 L264.115385,393.230769 L246.961538,393.230769 L246.961538,357.850962 C229.807607,352.847731 221.230769,341.769317 221.230769,324.615385 C221.230769,314.608924 224.447083,306.389455 230.879808,299.956731 C237.312532,293.524006 245.532001,290.307692 255.538462,290.307692 Z M255.538462,341.769231 C266.974416,341.769231 272.692308,336.051339 272.692308,324.615385 C272.692308,313.17943 266.974416,307.461538 255.538462,307.461538 C244.102507,307.461538 238.384615,313.17943 238.384615,324.615385 C238.384615,336.051339 244.102507,341.769231 255.538462,341.769231 Z" id="lock_icn"></path>
        </g>
    </g>
</svg>