<?xml version="1.0" encoding="UTF-8"?>
<svg width="512px" height="512px" viewBox="0 0 512 512" version="1.1" xmlns="http://www.w3.org/2000/svg" xmlns:xlink="http://www.w3.org/1999/xlink">
    <!-- Generator: Sketch 47.1 (45422) - http://www.bohemiancoding.com/sketch -->
    <title>lock1</title>
    <desc>Created with Sketch.</desc>
    <defs></defs>
    <g id="Page-1" stroke="none" stroke-width="1" fill="none" fill-rule="evenodd">
        <g id="lock1" fill="#6F727D">
            <path d="M383.859612,216.573074 L452.769226,216.573074 L452.769226,511.899994 L59,511.899994 L59,216.573074 L127.909615,216.573074 L127.909615,127.974998 C127.909615,92.6996623 140.419866,62.5520074 165.440744,37.5311294 C190.461622,12.5102513 220.609277,0 255.884613,0 C291.159949,0 321.307604,12.5102513 346.328482,37.5311294 C371.34936,62.5520074 383.859612,92.6996623 383.859612,127.974998 L383.859612,216.573074 Z M147.598076,127.974998 L147.598076,216.573074 L364.17115,216.573074 L364.17115,127.974998 C364.17115,97.6218022 353.71176,71.9860412 332.792665,51.0669465 C311.87357,30.1478518 286.237809,19.6884613 255.884613,19.6884613 C225.531417,19.6884613 199.895656,30.1478518 178.976561,51.0669465 C158.057466,71.9860412 147.598076,97.6218022 147.598076,127.974998 Z M433.080765,492.211533 L433.080765,236.261536 L78.6884613,236.261536 L78.6884613,492.211533 L433.080765,492.211533 Z M255.884613,295.32692 C267.369606,295.32692 276.803566,299.018469 284.186776,306.401679 C291.569986,313.784889 295.261536,323.218849 295.261536,334.703842 C295.261536,354.392402 285.417403,367.107739 265.728844,372.850236 L265.728844,413.457687 L246.040382,413.457687 L246.040382,372.850236 C226.351823,367.107739 216.50769,354.392402 216.50769,334.703842 C216.50769,323.218849 220.19924,313.784889 227.58245,306.401679 C234.96566,299.018469 244.39962,295.32692 255.884613,295.32692 Z M255.884613,354.392303 C269.01032,354.392303 275.573074,347.829549 275.573074,334.703842 C275.573074,321.578136 269.01032,315.015381 255.884613,315.015381 C242.758907,315.015381 236.196152,321.578136 236.196152,334.703842 C236.196152,347.829549 242.758907,354.392303 255.884613,354.392303 Z" id="lock_icn"></path>
        </g>
    </g>
</svg>