<?xml version="1.0" encoding="UTF-8"?>
<svg width="445px" height="446px" viewBox="0 0 445 446" version="1.1" xmlns="http://www.w3.org/2000/svg" xmlns:xlink="http://www.w3.org/1999/xlink">
    <!-- Generator: Sketch 47 (45396) - http://www.bohemiancoding.com/sketch -->
    <title>mirror-horizontally</title>
    <desc>Created with Sketch.</desc>
    <defs></defs>
    <g id="Page-1" stroke="none" stroke-width="1" fill="none" fill-rule="evenodd">
        <g id="mirror" transform="translate(-33.000000, -33.000000)" fill-rule="nonzero">
            <g id="mirror-horizontally" transform="translate(33.000000, 33.000000)">
                <path d="M0,422.457335 L206.041096,261.189939 L0,99.9225434 L0,422.457335 Z M14.9024371,130.86231 L181.42227,261.189939 L14.9024371,391.517568 L14.9024371,130.86231 Z" id="Shape" fill="#FFFFFF"></path>
                <path d="M238.958904,261.189939 L445,422.457335 L445,99.9225434 L238.958904,261.189939 Z M430.097563,391.517568 L263.57773,261.189939 L430.097563,130.86231 L430.097563,391.517568 Z" id="Shape" fill="#FFFFFF"></path>
                <path d="M222.5,345.301954 C218.117664,345.301954 214.575342,348.694261 214.575342,352.891008 L214.575342,360.480062 C214.575342,364.676808 218.117664,368.069116 222.5,368.069116 C226.882336,368.069116 230.424658,364.676808 230.424658,360.480062 L230.424658,352.891008 C230.424658,348.694261 226.882336,345.301954 222.5,345.301954 Z" id="Shape" fill="#9E9E9E"></path>
                <path d="M222.5,306.091842 C218.117664,306.091842 214.575342,309.484149 214.575342,313.680896 L214.575342,321.26995 C214.575342,325.466696 218.117664,328.859004 222.5,328.859004 C226.882336,328.859004 230.424658,325.466696 230.424658,321.26995 L230.424658,313.680896 C230.424658,309.484149 226.882336,306.091842 222.5,306.091842 Z" id="Shape" fill="#9E9E9E"></path>
                <path d="M222.5,384.512066 C218.117664,384.512066 214.575342,387.904373 214.575342,392.10112 L214.575342,399.690174 C214.575342,403.88692 218.117664,407.279227 222.5,407.279227 C226.882336,407.279227 230.424658,403.88692 230.424658,399.690174 L230.424658,392.10112 C230.424658,387.904373 226.882336,384.512066 222.5,384.512066 Z" id="Shape" fill="#9E9E9E"></path>
                <path d="M222.5,422.457335 C218.117664,422.457335 214.575342,425.849642 214.575342,430.046389 L214.575342,437.635443 C214.575342,441.83219 218.117664,445.224497 222.5,445.224497 C226.882336,445.224497 230.424658,441.83219 230.424658,437.635443 L230.424658,430.046389 C230.424658,425.849642 226.882336,422.457335 222.5,422.457335 Z" id="Shape" fill="#9E9E9E"></path>
                <path d="M222.5,269.411414 C218.117664,269.411414 214.575342,272.803722 214.575342,277.000468 L214.575342,284.589522 C214.575342,288.786269 218.117664,292.178576 222.5,292.178576 C226.882336,292.178576 230.424658,288.786269 230.424658,284.589522 L230.424658,277.000468 C230.424658,272.803722 226.882336,269.411414 222.5,269.411414 Z" id="Shape" fill="#9E9E9E"></path>
                <path d="M222.5,153.045921 C218.117664,153.045921 214.575342,156.438228 214.575342,160.634975 L214.575342,168.224029 C214.575342,172.420776 218.117664,175.813083 222.5,175.813083 C226.882336,175.813083 230.424658,172.420776 230.424658,168.224029 L230.424658,160.634975 C230.424658,156.438228 226.882336,153.045921 222.5,153.045921 Z" id="Shape" fill="#9E9E9E"></path>
                <path d="M222.5,78.4202239 C218.117664,78.4202239 214.575342,81.812531 214.575342,86.0092779 L214.575342,93.5983318 C214.575342,97.7950786 218.117664,101.187386 222.5,101.187386 C226.882336,101.187386 230.424658,97.7950786 230.424658,93.5983318 L230.424658,86.0092779 C230.424658,81.812531 226.882336,78.4202239 222.5,78.4202239 Z" id="Shape" fill="#9E9E9E"></path>
                <path d="M222.5,113.835809 C218.117664,113.835809 214.575342,117.228116 214.575342,121.424863 L214.575342,129.013917 C214.575342,133.210664 218.117664,136.602971 222.5,136.602971 C226.882336,136.602971 230.424658,133.210664 230.424658,129.013917 L230.424658,121.424863 C230.424658,117.228116 226.882336,113.835809 222.5,113.835809 Z" id="Shape" fill="#9E9E9E"></path>
                <path d="M222.5,231.466145 C218.117664,231.466145 214.575342,234.858452 214.575342,239.055199 L214.575342,246.644253 C214.575342,250.840999 218.117664,254.233307 222.5,254.233307 C226.882336,254.233307 230.424658,250.840999 230.424658,246.644253 L230.424658,239.055199 C230.424658,234.858452 226.882336,231.466145 222.5,231.466145 Z" id="Shape" fill="#9E9E9E"></path>
                <path d="M222.5,192.256033 C218.117664,192.256033 214.575342,195.64834 214.575342,199.845087 L214.575342,207.434141 C214.575342,211.630888 218.117664,215.023195 222.5,215.023195 C226.882336,215.023195 230.424658,211.630888 230.424658,207.434141 L230.424658,199.845087 C230.424658,195.64834 226.882336,192.256033 222.5,192.256033 Z" id="Shape" fill="#9E9E9E"></path>
                <path d="M87.588527,105.707932 C91.3977208,107.256099 95.7277027,105.366425 97.260308,101.47324 C117.466891,49.8524953 167.484878,15.1781079 221.70637,15.1781079 C273.792631,15.1781079 321.913462,47.2342716 343.444334,95.2046815 L299.534448,83.2063873 C295.583898,82.1287416 291.484551,84.5268827 290.420655,88.5718484 C289.356759,92.6168141 291.715185,96.7832047 295.680616,97.8684395 L353.175634,113.577781 C353.822899,113.752329 354.470164,113.835809 355.10999,113.835809 C355.199268,113.835809 355.273666,113.797864 355.362944,113.790275 C355.444782,113.797864 355.53406,113.835809 355.623338,113.835809 C356.4194,113.835809 357.245222,113.699206 358.041284,113.418411 C361.27017,112.287642 363.115249,109.107828 362.921813,105.791412 L377.689879,49.5565222 C378.753775,45.5115564 376.395348,41.3451658 372.429918,40.2599311 C368.479367,39.1822854 364.38002,41.5804265 363.316124,45.6253922 L353.718741,82.1666869 C328.296837,32.503918 277.006638,0 221.70637,0 C161.451175,0 105.890513,38.5144487 83.437101,95.8421621 C81.9119355,99.7353467 83.7718934,104.152176 87.588527,105.707932 Z" id="Shape" fill="#FFFFFF"></path>
            </g>
        </g>
    </g>
</svg>