<?xml version="1.0" encoding="UTF-8"?>
<svg width="512px" height="512px" viewBox="0 0 512 512" version="1.1" xmlns="http://www.w3.org/2000/svg" xmlns:xlink="http://www.w3.org/1999/xlink">
    <!-- Generator: Sketch 47.1 (45422) - http://www.bohemiancoding.com/sketch -->
    <title>mirror</title>
    <desc>Created with Sketch.</desc>
    <defs></defs>
    <g id="Page-1" stroke="none" stroke-width="1" fill="none" fill-rule="evenodd">
        <g id="mirror" fill-rule="nonzero" fill="#6F727D">
            <g id="mirror-horizontally" transform="translate(32.000000, 0.000000)">
                <path d="M0,486 L207,300.5 L0,115 L0,486 Z M16,150.588885 L182.266599,300.5 L16,450.411115 L16,150.588885 Z" id="Shape"></path>
                <path d="M273,300.5 L480,486 L480,115 L273,300.5 Z M448,419 L305,297.5 L448,176 L448,419 Z" id="Shape"></path>
                <path d="M224,395 C219.576,395 216,399.023 216,404 L216,413 C216,417.977 219.576,422 224,422 C228.424,422 232,417.977 232,413 L232,404 C232,399.023 228.424,395 224,395 Z" id="Shape"></path>
                <path d="M224,352 C219.576,352 216,356.023 216,361 L216,370 C216,374.977 219.576,379 224,379 C228.424,379 232,374.977 232,370 L232,361 C232,356.023 228.424,352 224,352 Z" id="Shape"></path>
                <path d="M224,441 C219.576,441 216,445.023 216,450 L216,459 C216,463.977 219.576,468 224,468 C228.424,468 232,463.977 232,459 L232,450 C232,445.023 228.424,441 224,441 Z" id="Shape"></path>
                <path d="M224,485 C219.576,485 216,489.023 216,494 L216,503 C216,507.977 219.576,512 224,512 C228.424,512 232,507.977 232,503 L232,494 C232,489.023 228.424,485 224,485 Z" id="Shape"></path>
                <path d="M224,310 C219.576,310 216,314.023 216,319 L216,328 C216,332.977 219.576,337 224,337 C228.424,337 232,332.977 232,328 L232,319 C232,314.023 228.424,310 224,310 Z" id="Shape"></path>
                <path d="M224,175 C219.576,175 216,179.023 216,184 L216,193 C216,197.977 219.576,202 224,202 C228.424,202 232,197.977 232,193 L232,184 C232,179.023 228.424,175 224,175 Z" id="Shape"></path>
                <path d="M224,90 C219.576,90 216,94.023 216,99 L216,108 C216,112.977 219.576,117 224,117 C228.424,117 232,112.977 232,108 L232,99 C232,94.023 228.424,90 224,90 Z" id="Shape"></path>
                <path d="M224,130 C219.576,130 216,134.023 216,139 L216,148 C216,152.977 219.576,157 224,157 C228.424,157 232,152.977 232,148 L232,139 C232,134.023 228.424,130 224,130 Z" id="Shape"></path>
                <path d="M224,265 C219.576,265 216,269.023 216,274 L216,283 C216,287.977 219.576,292 224,292 C228.424,292 232,287.977 232,283 L232,274 C232,269.023 228.424,265 224,265 Z" id="Shape"></path>
                <path d="M224,221 C219.576,221 216,225.023 216,230 L216,239 C216,243.977 219.576,248 224,248 C228.424,248 232,243.977 232,239 L232,230 C232,225.023 228.424,221 224,221 Z" id="Shape"></path>
                <path d="M87.7155193,120.718 C91.5500039,122.486 95.9087345,120.328 97.4515154,115.882 C117.792258,56.9313333 168.142336,17.3333333 222.723828,17.3333333 C275.155912,17.3333333 323.596237,53.9413333 345.270063,108.723333 L301.06864,95.0213333 C297.09186,93.7906667 292.965296,96.5293333 291.894336,101.148667 C290.823377,105.768 293.197462,110.526 297.18922,111.765333 L355.065972,129.705333 C355.717535,129.904667 356.369098,130 357.013172,130 C358.331276,130 359.16258,129.844 359.963927,129.523333 C363.214252,128.232 365.071581,124.600667 364.876861,120.813333 L379.742978,56.5933333 C380.813938,51.974 378.439852,47.216 374.448094,45.9766667 C370.471314,44.746 366.34475,47.4846667 365.27379,52.104 L355.612686,93.834 C330.021995,37.1193333 278.391259,0 222.723828,0 C162.068573,0 106.13902,43.9833333 83.5365302,109.451333 C82.0012385,113.897333 83.8735454,118.941333 87.7155193,120.718 Z" id="Shape"></path>
            </g>
        </g>
    </g>
</svg>