<?xml version="1.0" encoding="UTF-8"?>
<svg width="512px" height="512px" viewBox="0 0 512 512" version="1.1" xmlns="http://www.w3.org/2000/svg" xmlns:xlink="http://www.w3.org/1999/xlink">
    <!-- Generator: Sketch 47 (45396) - http://www.bohemiancoding.com/sketch -->
    <title>oval</title>
    <desc>Created with Sketch.</desc>
    <defs></defs>
    <g id="Page-1" stroke="none" stroke-width="1" fill="none" fill-rule="evenodd">
        <g id="oval" fill="#9E9E9E">
            <g transform="translate(33.000000, 33.000000)" id="ï">
                <path d="M222.625,0.875 C283.98989,0.875 336.434678,22.6378032 379.960938,66.1640625 C423.487197,109.690322 445.25,162.13511 445.25,223.5 C445.25,284.86489 423.487197,337.309678 379.960938,380.835938 C336.434678,424.362197 283.98989,446.125 222.625,446.125 C161.26011,446.125 108.815322,424.362197 65.2890625,380.835938 C21.7628032,337.309678 0,284.86489 0,223.5 C0,162.13511 21.7628032,109.690322 65.2890625,66.1640625 C108.815322,22.6378032 161.26011,0.875 222.625,0.875 Z M222.625,427.929688 C278.995074,427.929688 327.158654,407.950721 367.117188,367.992188 C407.075721,328.033654 427.054688,279.870074 427.054688,223.5 C427.054688,167.129926 407.075721,118.966346 367.117188,79.0078125 C327.158654,39.0492794 278.995074,19.0703125 222.625,19.0703125 C166.254926,19.0703125 118.091346,39.0492794 78.1328125,79.0078125 C38.1742794,118.966346 18.1953125,167.129926 18.1953125,223.5 C18.1953125,279.870074 38.1742794,328.033654 78.1328125,367.992188 C118.091346,407.950721 166.254926,427.929688 222.625,427.929688 Z"></path>
            </g>
        </g>
    </g>
</svg>