<?xml version="1.0" encoding="UTF-8"?>
<svg width="512px" height="512px" viewBox="0 0 512 512" version="1.1" xmlns="http://www.w3.org/2000/svg" xmlns:xlink="http://www.w3.org/1999/xlink">
    <!-- Generator: Sketch 47 (45396) - http://www.bohemiancoding.com/sketch -->
    <title>lock_paint</title>
    <desc>Created with Sketch.</desc>
    <defs></defs>
    <g id="Page-1" stroke="none" stroke-width="1" fill="none" fill-rule="evenodd">
        <g id="lock_paint" fill="#9E9E9E">
            <path d="M154.386719,283.255859 C181.346489,283.255859 204.360582,292.790269 223.429688,311.859375 C242.498793,330.928481 249.074248,354.928892 243.15625,383.861328 C233.950475,425.944872 204.360927,451.260374 154.386719,459.808594 C135.317613,463.096371 113.125452,461.945666 87.8095703,456.356445 C62.4936885,450.767225 45.8906645,440.410883 38,425.287109 C60.3568826,416.73889 71.5351562,400.629025 71.5351562,376.957031 C71.5351562,351.312372 79.0969296,329.284597 94.2207031,310.873047 C109.344477,292.461496 129.399615,283.255859 154.386719,283.255859 Z M468.039062,63.3046875 C483.162836,78.428461 484.8067,93.223235 472.970703,107.689453 L321.076172,280.296875 C323.048838,289.50265 322.06252,297.064424 318.117188,302.982422 L268.800781,360.189453 C266.828115,362.162119 264.855479,362.162119 262.882812,360.189453 C262.225257,359.531898 261.896484,358.545579 261.896484,357.230469 L261.896484,356.244141 C262.55404,331.257037 254.334721,310.544353 237.238281,294.105469 C220.141842,277.666584 199.100385,268.78972 174.113281,267.474609 L172.140625,267.474609 C170.825514,267.474609 170.167969,267.145837 170.167969,266.488281 C168.195303,264.515615 168.195303,262.542979 170.167969,260.570312 L228.361328,212.240234 C233.621771,208.952458 241.183544,208.294912 251.046875,210.267578 L423.654297,58.3730469 C438.120515,46.5370502 452.915289,48.180914 468.039062,63.3046875 Z" id=""></path>
        </g>
    </g>
</svg>