<?xml version="1.0" encoding="UTF-8"?>
<svg width="512px" height="512px" viewBox="0 0 512 512" version="1.1" xmlns="http://www.w3.org/2000/svg" xmlns:xlink="http://www.w3.org/1999/xlink">
    <!-- Generator: Sketch 47 (45396) - http://www.bohemiancoding.com/sketch -->
    <title>paragraph-spacing</title>
    <desc>Created with Sketch.</desc>
    <defs></defs>
    <g id="Page-1" stroke="none" stroke-width="1" fill="none" fill-rule="evenodd">
        <g id="paragraph-spacing" fill="#9E9E9E">
            <g transform="translate(33.000000, 32.000000)" id="">
                <path d="M300.346633,390.089655 C300.346633,385.619761 296.80682,382.143177 292.255633,382.143177 L227.527634,382.143177 C222.976446,382.143177 219.436634,385.619761 219.436634,390.089655 L219.436634,437.768523 C219.436634,442.238417 222.976446,445.715001 227.527634,445.715001 L292.255633,445.715001 C296.80682,445.715001 300.346633,442.238417 300.346633,437.768523 L300.346633,390.089655 Z M178.981634,358.303743 C178.981634,353.833849 175.441822,350.357265 170.890634,350.357265 L122.344635,350.357265 L122.344635,8.65871105 C122.344635,4.18881718 118.804822,0.712233059 114.253635,0.712233059 L65.7076355,0.712233059 C61.1564481,0.712233059 57.6166356,4.18881718 57.6166356,8.65871105 L57.6166356,350.357265 L9.07063617,350.357265 C5.78366746,350.357265 2.7495425,352.343884 1.48532376,355.323814 C0.221105027,358.303743 0.979636269,361.531999 3.25522999,364.015274 L84.165229,443.480054 C85.9351353,444.970018 87.9578852,445.715001 89.9806352,445.715001 C92.0033852,445.715001 94.0261352,444.970018 95.7960414,443.480054 L176.453197,364.263601 C177.970259,362.525309 178.981634,360.53869 178.981634,358.303743 Z M348.892632,262.946007 C348.892632,258.476113 345.35282,254.999529 340.801632,254.999529 L227.527634,254.999529 C222.976446,254.999529 219.436634,258.476113 219.436634,262.946007 L219.436634,310.624875 C219.436634,315.094769 222.976446,318.571353 227.527634,318.571353 L340.801632,318.571353 C345.35282,318.571353 348.892632,315.094769 348.892632,310.624875 L348.892632,262.946007 Z M397.438632,135.802359 C397.438632,131.332465 393.898819,127.855881 389.347632,127.855881 L227.527634,127.855881 C222.976446,127.855881 219.436634,131.332465 219.436634,135.802359 L219.436634,183.481227 C219.436634,187.951121 222.976446,191.427705 227.527634,191.427705 L389.347632,191.427705 C393.898819,191.427705 397.438632,187.951121 397.438632,183.481227 L397.438632,135.802359 Z M445.984631,8.65871105 C445.984631,4.18881718 442.444819,0.712233059 437.893631,0.712233059 L227.527634,0.712233059 C222.976446,0.712233059 219.436634,4.18881718 219.436634,8.65871105 L219.436634,56.337579 C219.436634,60.8074729 222.976446,64.284057 227.527634,64.284057 L437.893631,64.284057 C442.444819,64.284057 445.984631,60.8074729 445.984631,56.337579 L445.984631,8.65871105 Z"></path>
            </g>
        </g>
    </g>
</svg>