<?xml version="1.0" encoding="UTF-8"?>
<svg width="512px" height="512px" viewBox="0 0 512 512" version="1.1" xmlns="http://www.w3.org/2000/svg" xmlns:xlink="http://www.w3.org/1999/xlink">
    <!-- Generator: Sketch 47 (45396) - http://www.bohemiancoding.com/sketch -->
    <title>retangle-shape</title>
    <desc>Created with Sketch.</desc>
    <defs></defs>
    <g id="Page-1" stroke="none" stroke-width="1" fill="none" fill-rule="evenodd">
        <g id="retangle-shape" fill="#9E9E9E">
            <g transform="translate(33.000000, 33.000000)" id="ï²">
                <path d="M396.945312,50.0546875 L50.0546875,50.0546875 L50.0546875,396.945312 L396.945312,396.945312 L396.945312,50.0546875 Z M396.945312,0 C410.138087,0 421.778595,5.04422039 431.867188,15.1328125 C441.95578,25.2214046 447,36.8619132 447,50.0546875 L447,396.945312 C447,410.138087 441.95578,421.778595 431.867188,431.867188 C421.778595,441.95578 410.138087,447 396.945312,447 L50.0546875,447 C36.8619132,447 25.2214046,441.95578 15.1328125,431.867188 C5.04422039,421.778595 0,410.138087 0,396.945312 L0,50.0546875 C0,36.8619132 5.04422039,25.2214046 15.1328125,15.1328125 C25.2214046,5.04422039 36.8619132,0 50.0546875,0 L396.945312,0 Z"></path>
            </g>
        </g>
    </g>
</svg>