<?xml version="1.0" encoding="UTF-8"?>
<svg width="512px" height="512px" viewBox="0 0 512 512" version="1.1" xmlns="http://www.w3.org/2000/svg" xmlns:xlink="http://www.w3.org/1999/xlink">
    <!-- Generator: Sketch 47 (45396) - http://www.bohemiancoding.com/sketch -->
    <title>setting</title>
    <desc>Created with Sketch.</desc>
    <defs></defs>
    <g id="Page-1" stroke="none" stroke-width="1" fill="none" fill-rule="evenodd">
        <g id="setting" fill="#9E9E9E">
            <g transform="translate(33.000000, 33.000000)" id="">
                <path d="M392.019531,245.310547 L442.232422,281.634766 C446.505881,285.908224 447.218113,290.893852 444.369141,296.591797 L398.429687,372.445312 C395.580715,378.143258 391.30732,379.923839 385.609375,377.787109 L327.917969,355.351562 C310.11189,367.459696 297.291706,374.938137 289.457031,377.787109 L280.910156,436.546875 C279.48567,442.24482 275.568391,445.09375 269.158203,445.09375 L178.347656,445.09375 C171.937468,445.09375 168.020189,442.24482 166.595703,436.546875 L158.048828,377.787109 C147.365181,373.513651 134.544997,366.03521 119.587891,355.351562 L61.8964844,377.787109 C56.1985392,380.636082 51.9251445,378.855501 49.0761719,372.445312 L3.13671875,296.591797 C-0.424496973,290.181609 0.287735488,285.195981 5.2734375,281.634766 L53.3496094,245.310547 C53.3496094,243.173817 53.1715513,239.612655 52.8154297,234.626953 C52.4593081,229.641251 52.28125,225.723973 52.28125,222.875 C52.28125,220.026027 52.4593081,216.108749 52.8154297,211.123047 C53.1715513,206.137345 53.3496094,202.576183 53.3496094,200.439453 L4.20507812,164.115234 C-0.0683807422,159.841776 -0.780613203,154.856148 2.06835937,149.158203 L48.0078125,73.3046875 C50.8567851,67.6067423 55.1301798,65.8261612 60.828125,67.9628906 L118.519531,90.3984375 C136.32561,78.290304 149.145794,70.8118632 156.980469,67.9628906 L165.527344,9.203125 C166.95183,3.50517984 170.869109,0.65625 177.279297,0.65625 L268.089844,0.65625 C274.500032,0.65625 278.417311,3.50517984 279.841797,9.203125 L287.320312,67.9628906 C298.00396,72.2363495 310.824144,79.7147903 325.78125,90.3984375 L382.404297,67.9628906 C388.102242,65.113918 392.731753,66.8944992 396.292969,73.3046875 L442.232422,149.158203 C445.793638,155.568391 445.081405,160.554019 440.095703,164.115234 L392.019531,200.439453 C392.019531,202.576183 392.197589,206.137345 392.553711,211.123047 C392.909833,216.108749 393.087891,220.026027 393.087891,222.875 C393.087891,233.558647 392.731774,241.037088 392.019531,245.310547 Z M222.150391,300.865234 C244.229928,300.865234 263.104088,293.386794 278.773437,278.429688 C294.442787,263.472581 302.277344,244.954537 302.277344,222.875 C302.277344,200.795463 294.442787,182.277419 278.773437,167.320312 C263.104088,152.363206 244.229928,144.884766 222.150391,144.884766 C200.070853,144.884766 181.374751,152.363206 166.061523,167.320312 C150.748296,182.277419 143.091797,200.795463 143.091797,222.875 C143.091797,244.954537 150.748296,263.472581 166.061523,278.429688 C181.374751,293.386794 200.070853,300.865234 222.150391,300.865234 Z"></path>
            </g>
        </g>
    </g>
</svg>