<?xml version="1.0" encoding="UTF-8"?>
<svg width="447px" height="445px" viewBox="0 0 447 445" version="1.1" xmlns="http://www.w3.org/2000/svg" xmlns:xlink="http://www.w3.org/1999/xlink">
    <!-- Generator: Sketch 47 (45396) - http://www.bohemiancoding.com/sketch -->
    <title>textalign-left</title>
    <desc>Created with Sketch.</desc>
    <defs></defs>
    <g id="Page-1" stroke="none" stroke-width="1" fill="none" fill-rule="evenodd">
        <g id="align-left" transform="translate(-32.000000, -33.000000)" fill="#FFFFFF">
            <g id="textalign-left" transform="translate(32.000000, 33.000000)">
                <path d="M447,384.318182 C447,373.256392 439.766183,364.090909 431.035714,364.090909 L15.9642857,364.090909 C7.23381696,364.090909 0,373.256392 0,384.318182 L0,424.772727 C0,435.834517 7.23381696,445 15.9642857,445 L431.035714,445 C439.766183,445 447,435.834517 447,424.772727 L447,384.318182 Z M351.214286,262.954545 C351.214286,251.892756 343.980469,242.727273 335.25,242.727273 L15.9642857,242.727273 C7.23381696,242.727273 0,251.892756 0,262.954545 L0,303.409091 C0,314.470881 7.23381696,323.636364 15.9642857,323.636364 L335.25,323.636364 C343.980469,323.636364 351.214286,314.470881 351.214286,303.409091 L351.214286,262.954545 Z M415.071429,141.590909 C415.071429,130.529119 407.837612,121.363636 399.107143,121.363636 L15.9642857,121.363636 C7.23381696,121.363636 0,130.529119 0,141.590909 L0,182.045455 C0,193.107244 7.23381696,202.272727 15.9642857,202.272727 L399.107143,202.272727 C407.837612,202.272727 415.071429,193.107244 415.071429,182.045455 L415.071429,141.590909 Z M319.285714,20.2272727 C319.285714,9.16548295 312.051897,0 303.321429,0 L15.9642857,0 C7.23381696,0 0,9.16548295 0,20.2272727 L0,60.6818182 C0,71.743608 7.23381696,80.9090909 15.9642857,80.9090909 L303.321429,80.9090909 C312.051897,80.9090909 319.285714,71.743608 319.285714,60.6818182 L319.285714,20.2272727 Z" id=""></path>
            </g>
        </g>
    </g>
</svg>