<?xml version="1.0" encoding="UTF-8"?>
<svg width="446px" height="445px" viewBox="0 0 446 445" version="1.1" xmlns="http://www.w3.org/2000/svg" xmlns:xlink="http://www.w3.org/1999/xlink">
    <!-- Generator: Sketch 47 (45396) - http://www.bohemiancoding.com/sketch -->
    <title>textalign-right</title>
    <desc>Created with Sketch.</desc>
    <defs></defs>
    <g id="Page-1" stroke="none" stroke-width="1" fill="none" fill-rule="evenodd">
        <g id="align-right" transform="translate(-33.000000, -33.000000)" fill="#FFFFFF">
            <g id="textalign-right" transform="translate(33.000000, 33.000000)">
                <path d="M446,384.318182 C446,373.256392 438.782366,364.090909 430.071429,364.090909 L15.9285714,364.090909 C7.21763393,364.090909 0,373.256392 0,384.318182 L0,424.772727 C0,435.834517 7.21763393,445 15.9285714,445 L430.071429,445 C438.782366,445 446,435.834517 446,424.772727 L446,384.318182 Z M446,262.954545 C446,251.892756 438.782366,242.727273 430.071429,242.727273 L111.5,242.727273 C102.789063,242.727273 95.5714286,251.892756 95.5714286,262.954545 L95.5714286,303.409091 C95.5714286,314.470881 102.789063,323.636364 111.5,323.636364 L430.071429,323.636364 C438.782366,323.636364 446,314.470881 446,303.409091 L446,262.954545 Z M446,141.590909 C446,130.529119 438.782366,121.363636 430.071429,121.363636 L47.7857143,121.363636 C39.0747768,121.363636 31.8571429,130.529119 31.8571429,141.590909 L31.8571429,182.045455 C31.8571429,193.107244 39.0747768,202.272727 47.7857143,202.272727 L430.071429,202.272727 C438.782366,202.272727 446,193.107244 446,182.045455 L446,141.590909 Z M446,20.2272727 C446,9.16548295 438.782366,0 430.071429,0 L143.357143,0 C134.646205,0 127.428571,9.16548295 127.428571,20.2272727 L127.428571,60.6818182 C127.428571,71.743608 134.646205,80.9090909 143.357143,80.9090909 L430.071429,80.9090909 C438.782366,80.9090909 446,71.743608 446,60.6818182 L446,20.2272727 Z" id=""></path>
            </g>
        </g>
    </g>
</svg>