<?xml version="1.0" encoding="UTF-8"?>
<svg width="512px" height="512px" viewBox="0 0 512 512" version="1.1" xmlns="http://www.w3.org/2000/svg" xmlns:xlink="http://www.w3.org/1999/xlink">
    <!-- Generator: Sketch 47.1 (45422) - http://www.bohemiancoding.com/sketch -->
    <title>Unlock1</title>
    <desc>Created with Sketch.</desc>
    <defs></defs>
    <g id="Page-1" stroke="none" stroke-width="1" fill="none" fill-rule="evenodd">
        <g id="Unlock1" fill="#6F727D">
            <path d="M256.884613,295.32692 C268.369606,295.32692 277.803566,299.018469 285.186776,306.401679 C292.569986,313.784889 296.261536,323.218849 296.261536,334.703842 C296.261536,354.392402 286.417403,367.107739 266.728844,372.850236 L266.728844,413.457687 L247.040382,413.457687 L247.040382,372.850236 C227.351823,367.107739 217.50769,354.392402 217.50769,334.703842 C217.50769,323.218849 221.19924,313.784889 228.58245,306.401679 C235.96566,299.018469 245.39962,295.32692 256.884613,295.32692 Z M256.884613,354.392303 C270.01032,354.392303 276.573074,347.829549 276.573074,334.703842 C276.573074,321.578136 270.01032,315.015381 256.884613,315.015381 C243.758907,315.015381 237.196152,321.578136 237.196152,334.703842 C237.196152,347.829549 243.758907,354.392303 256.884613,354.392303 Z M148.598076,216.573074 L453.769226,216.573074 L453.769226,511.899994 L60,511.899994 L60,216.573074 L128.909615,216.573074 L128.909615,127.974998 C128.909615,92.6996623 141.419866,62.5520074 166.440744,37.5311294 C191.461622,12.5102513 221.609277,0 256.884613,0 C292.159949,0 322.307604,12.5102513 347.328482,37.5311294 C372.34936,62.5520074 384.859612,92.6996623 384.859612,127.974998 L384.859612,137.819229 L365.17115,137.819229 L365.17115,127.974998 C365.17115,97.6218022 354.71176,71.9860412 333.792665,51.0669465 C312.87357,30.1478518 287.237809,19.6884613 256.884613,19.6884613 C226.531417,19.6884613 200.895656,30.1478518 179.976561,51.0669465 C159.057466,71.9860412 148.598076,97.6218022 148.598076,127.974998 L148.598076,216.573074 Z M434.080765,492.211533 L434.080765,236.261536 L79.6884613,236.261536 L79.6884613,492.211533 L434.080765,492.211533 Z" id=""></path>
        </g>
    </g>
</svg>