<?xml version="1.0" encoding="UTF-8"?>
<svg width="512px" height="512px" viewBox="0 0 512 512" version="1.1" xmlns="http://www.w3.org/2000/svg" xmlns:xlink="http://www.w3.org/1999/xlink">
    <!-- Generator: Sketch 47 (45396) - http://www.bohemiancoding.com/sketch -->
    <title>zoom</title>
    <desc>Created with Sketch.</desc>
    <defs></defs>
    <g id="Page-1" stroke="none" stroke-width="1" fill="none" fill-rule="evenodd">
        <g id="zoom" fill="#9E9E9E">
            <g transform="translate(32.000000, 32.000000)" id="">
                <path d="M448.5,422.136719 L421.636719,449 L289.65625,317.019531 C257.731611,342.714972 220.356985,355.5625 177.53125,355.5625 C128.476317,355.5625 86.6245222,338.237803 51.9746094,303.587891 C17.3246965,268.937978 0,227.086183 0,178.03125 C0,128.976317 17.3246965,87.1245222 51.9746094,52.4746094 C86.6245222,17.8246965 128.476317,0.5 177.53125,0.5 C226.586183,0.5 268.437978,17.8246965 303.087891,52.4746094 C337.737803,87.1245222 355.0625,128.976317 355.0625,178.03125 C355.0625,220.078335 342.214972,257.063642 316.519531,288.988281 L448.5,422.136719 Z M65.40625,291.324219 C95.7735893,321.691558 133.148216,336.875 177.53125,336.875 C221.135635,336.875 258.510261,321.302239 289.65625,290.15625 C320.802239,259.010261 336.375,221.635635 336.375,178.03125 C336.375,134.426865 320.802239,97.0522391 289.65625,65.90625 C258.510261,34.7602609 221.135635,19.1875 177.53125,19.1875 C133.926865,19.1875 96.5522391,34.7602609 65.40625,65.90625 C34.2602609,97.0522391 18.6875,134.426865 18.6875,178.03125 C18.6875,222.414284 34.2602609,260.17823 65.40625,291.324219 Z"></path>
            </g>
        </g>
    </g>
</svg>